<svg width="86" height="86" viewBox="0 0 86 86" fill="none" xmlns="http://www.w3.org/2000/svg">
<path d="M11.49 85.53H11.3999C5.56995 85.53 0.830122 80.7899 0.830122 74.9599C0.810122 52.4699 7.65993 33.7199 20.6299 20.7499C33.5799 7.79994 52.29 0.949951 74.74 0.949951H74.8301C80.6601 0.949951 85.3999 5.68996 85.3999 11.52C85.4199 34.01 78.5701 52.7599 65.6001 65.7299C52.6501 78.6799 33.94 85.53 11.48 85.53H11.49ZM74.74 4.47992C53.24 4.47992 35.3902 10.9699 23.1202 23.2399C10.8202 35.5299 4.34014 53.4199 4.35014 74.9499C4.35014 78.8699 7.61002 82.0099 11.48 81.9999C32.98 81.9999 50.8301 75.5099 63.1101 63.2399C75.4101 50.9499 81.8899 33.06 81.8799 11.53C81.8799 7.63997 78.7201 4.47992 74.8301 4.47992H74.74Z" fill="#B01657"/>
<path d="M70.8201 46.52L67.6799 44.92C68.5299 43.26 69.3101 41.48 70.0701 39.49L73.3601 40.75C72.5501 42.86 71.7201 44.75 70.8201 46.52Z" fill="#B01657"/>
<path d="M40.6299 73.48L39.3799 70.1899C46.7099 67.3999 53.0299 63.37 58.1599 58.22C61.1699 55.21 63.79 51.7901 65.95 48.0601L69 49.83C66.68 53.83 63.8799 57.49 60.6499 60.71C55.1699 66.21 48.4299 70.51 40.6299 73.48Z" fill="#B01657"/>
<path d="M58.3081 3.10448L55.8191 5.59351L80.8365 30.6109L83.3256 28.1219L58.3081 3.10448Z" fill="#B01657"/>
<path d="M49.7669 5.11424L47.2778 7.60327L78.744 39.0695L81.2331 36.5804L49.7669 5.11424Z" fill="#B01657"/>
<path d="M5.44826 55.9599L2.95923 58.449L27.9767 83.4664L30.4657 80.9774L5.44826 55.9599Z" fill="#B01657"/>
<path d="M7.47682 47.4014L4.98779 49.8904L36.454 81.3566L38.9431 78.8676L7.47682 47.4014Z" fill="#B01657"/>
<path d="M57.7311 26.1375L26.0173 57.8513L28.5064 60.3403L60.2202 28.6265L57.7311 26.1375Z" fill="#B01657"/>
<path d="M39.0777 36.7018L36.5889 39.1907L47.1601 49.7619L49.6489 47.273L39.0777 36.7018Z" fill="#B01657"/>
<path d="M33.7879 41.9929L31.2988 44.4819L41.87 55.0531L44.3591 52.5641L33.7879 41.9929Z" fill="#B01657"/>
<path d="M28.5078 47.2842L26.0188 49.7732L36.5901 60.3445L39.0791 57.8555L28.5078 47.2842Z" fill="#B01657"/>
<path d="M44.3577 31.4248L41.8687 33.9138L52.44 44.4851L54.929 41.9961L44.3577 31.4248Z" fill="#B01657"/>
<path d="M49.6477 26.1335L47.1587 28.6226L57.73 39.1939L60.219 36.7048L49.6477 26.1335Z" fill="#B01657"/>
</svg>
