<svg width="143" height="87" viewBox="0 0 143 87" fill="none" xmlns="http://www.w3.org/2000/svg">
<path d="M101.56 12.9299C84.84 18.1699 75.5099 36.0299 80.7499 52.7399C85.9899 69.4599 103.85 78.7899 120.56 73.5499C137.28 68.3099 146.61 50.4499 141.37 33.7399C136.13 17.0199 118.27 7.68988 101.56 12.9299ZM138.55 32.5798L136.8 35.0299L127.51 31.5499L127.28 21.6199L130.15 20.7799C133.8 23.8699 136.73 27.8698 138.55 32.5798ZM127.92 19.0698L125.95 19.6499C125.39 19.8299 125 20.3399 124.99 20.9899L125.24 31.7399L121.07 34.3999L108.27 30.5599L106.69 25.5299L113.43 17.0599C113.79 16.5799 113.8 15.9299 113.43 15.4299L112.21 13.7699C117.89 13.9999 123.34 15.8798 127.92 19.0698ZM120.08 36.4699L119.68 49.8899L107.76 53.6299L99.78 42.8298L107.78 32.7799L120.08 36.4699ZM95.6 18.1199C97.64 16.8699 99.8499 15.8399 102.24 15.0999C104.62 14.3499 107.03 13.9299 109.42 13.7999L111.21 16.2299L105.03 23.9999L95.52 21.1499L95.6 18.1299V18.1199ZM93.29 19.6998L93.2299 21.7699C93.2199 22.3799 93.5999 22.9099 94.1899 23.0999L104.53 26.1998L106.11 31.2299L97.79 41.6799L92.84 41.8799L86.8798 32.8699C86.5298 32.3899 85.92 32.1799 85.34 32.3699L83.4099 33.0099C85.3499 27.7799 88.75 23.1198 93.29 19.6998ZM82.56 35.6898L85.3998 34.7399L90.8798 43.0299L85.2299 51.1898L82.3898 50.1699C81.1998 45.2599 81.32 40.2998 82.55 35.6898H82.56ZM92.78 64.3398L92.8 66.3899C88.5 62.9999 85.0899 58.3899 83.1899 52.8699L85.1599 53.5698C85.4299 53.6598 85.7199 53.6598 85.9799 53.5698C86.2399 53.4798 86.5099 53.3099 86.6999 53.0499L92.86 44.1499L97.8 43.9498L106.06 55.1199L104.2 60.1199L93.8798 62.9899C93.2598 63.1099 92.8 63.6498 92.79 64.3298L92.78 64.3398ZM108.81 72.6399C103.89 72.2599 99.17 70.6399 95.09 68.0099L95.06 65.0099L104.62 62.3599L110.65 70.2599L108.81 72.6399ZM119.88 71.3799C117.13 72.2399 114.35 72.6699 111.61 72.7199L112.89 71.0599C113.27 70.5399 113.23 69.8399 112.87 69.4299L106.34 60.8699L108.21 55.8599L120.62 51.9699L125.01 55.0199L124.54 65.6898C124.47 66.3198 124.84 66.9099 125.48 67.1399L127.44 67.7599C125.16 69.2799 122.63 70.5199 119.88 71.3799ZM129.69 66.0898L126.83 65.1898L127.27 55.2599L136.63 51.9799L138.32 54.4598C136.46 58.9498 133.51 62.9698 129.69 66.0898ZM138.1 50.0999C137.72 49.5699 137.04 49.3799 136.54 49.6099L126.34 53.1799L121.96 50.1399L122.37 36.2499L126.54 33.5898L136.72 37.3999C137 37.4899 137.28 37.4899 137.55 37.3999C137.82 37.3099 138.07 37.1399 138.26 36.8899L139.46 35.2098C141.05 40.8298 140.89 46.5599 139.28 51.7999L138.11 50.0798L138.1 50.0999Z" fill="#B01657"/>
<path d="M107.32 18.1998C107.44 18.1998 107.56 18.1799 107.67 18.1499C108.13 18.0099 108.46 17.5799 108.47 17.0799C108.47 16.4499 107.97 15.9399 107.35 15.9299C104.17 15.8999 101.12 16.8498 98.53 18.6998C98.02 19.0598 97.9 19.7699 98.26 20.2799C98.62 20.7899 99.3301 20.9099 99.8401 20.5499C102.04 18.9899 104.63 18.1798 107.33 18.1998H107.32Z" fill="#B01657"/>
<path d="M85.26 48.3199C85.86 48.1299 86.19 47.4999 86 46.8999C85.19 44.3299 85.22 41.61 86.08 39.06C86.28 38.47 85.9601 37.8199 85.3701 37.6199C84.7801 37.4199 84.1299 37.7399 83.9299 38.3299C82.9199 41.3399 82.88 44.5399 83.83 47.5799C84.02 48.1799 84.65 48.5099 85.25 48.3199H85.26Z" fill="#B01657"/>
<path d="M99.3601 65.6898C98.8601 65.3198 98.1501 65.4199 97.7701 65.9199C97.4001 66.4199 97.5 67.1299 98 67.5099C100.55 69.4099 103.58 70.4298 106.76 70.4598C106.88 70.4598 107 70.4399 107.11 70.4099C107.57 70.2699 107.9 69.8398 107.91 69.3398C107.91 68.7098 107.41 68.1998 106.79 68.1898C104.09 68.1598 101.52 67.2998 99.3501 65.6898H99.3601Z" fill="#B01657"/>
<path d="M133.48 54.9999C132.62 57.5599 131 59.74 128.8 61.3C128.29 61.66 128.17 62.3699 128.53 62.8799C128.82 63.2899 129.34 63.45 129.79 63.31C129.9 63.28 130.01 63.2199 130.11 63.1499C132.7 61.3099 134.61 58.7399 135.62 55.7299C135.82 55.1399 135.5 54.49 134.91 54.29C134.32 54.09 133.67 54.4099 133.47 54.9999H133.48Z" fill="#B01657"/>
<path d="M133.72 31.9499C133.91 32.5499 134.54 32.8799 135.14 32.6899C135.74 32.4999 136.07 31.8699 135.88 31.2699C134.93 28.2399 133.08 25.6299 130.52 23.7299C130.02 23.3599 129.31 23.4599 128.93 23.9599C128.56 24.4599 128.66 25.17 129.16 25.55C131.33 27.16 132.9 29.3699 133.7 31.9499H133.72Z" fill="#B01657"/>
<path d="M104.78 42.5599L106.72 40.3599C107.13 39.8899 107.09 39.1699 106.62 38.7599C106.15 38.3499 105.43 38.3899 105.02 38.8599L102.58 41.6299C102.15 42.1199 102.13 42.8499 102.53 43.3599L108.25 50.7399C108.55 51.1299 109.05 51.2699 109.49 51.1299C109.62 51.0899 109.74 51.0298 109.84 50.9398C110.34 50.5598 110.43 49.8398 110.04 49.3498L104.78 42.5599Z" fill="#B01657"/>
<path d="M76.3798 16.3199L58.0199 2.03992C57.6499 1.74992 57.21 1.55997 56.62 1.45997L42.09 0.219916C41.51 0.119916 40.9299 0.309945 40.5299 0.749945C40.1299 1.18995 39.9798 1.79994 40.1398 2.36994C41.4098 7.03994 38.7698 11.1399 33.4198 12.8099H33.3898C29.3198 14.0799 23.8798 13.59 21.9198 8.07996C21.7198 7.51996 21.2498 7.09992 20.6698 6.96992C20.0998 6.83992 19.5099 7.00997 19.1799 7.33997L7.75993 16.8199C7.42993 17.1499 7.17996 17.56 7.03996 18.01L0.120037 40.2199C-0.149963 41.0799 0.299812 42.0199 1.13981 42.3499L13.8798 47.3299C14.3098 47.4999 14.7799 47.49 15.1999 47.3C15.6199 47.11 15.95 46.7699 16.11 46.3399L19.35 37.8599L34.1398 85.0799C34.4298 85.9899 35.4 86.4999 36.3 86.2199L72.8798 74.7499C73.7898 74.4699 74.2899 73.4899 74.0099 72.5799L59.2199 25.3699L66.7199 30.4899C67.0999 30.7499 67.5599 30.85 68.0199 30.76C68.4799 30.67 68.87 30.41 69.12 30.03L76.7399 18.68C77.2399 17.93 77.08 16.8999 76.36 16.3499L76.3798 16.3199ZM13.85 44.2199L3.18986 40.05L4.08 37.16L14.9599 41.3199L13.85 44.2199ZM70.9399 72.3299L36.56 83.1099L35.56 79.92L69.9499 69.15L70.9499 72.3399L70.9399 72.3299ZM69.08 66.4L34.6899 77.17L33.6899 73.9799L68.08 63.2099L69.08 66.4ZM58.11 21.1099C57.5 20.6999 56.7 20.71 56.12 21.15C55.53 21.59 55.2799 22.35 55.4999 23.06L67.2199 60.4699L32.83 71.2399L21.11 33.8299C20.89 33.1299 20.2499 32.6399 19.5099 32.6199C19.3199 32.6199 19.1199 32.6399 18.9399 32.6999C18.4499 32.8499 18.04 33.2299 17.84 33.7299L15.9599 38.64L4.89982 34.42L9.66984 18.9599L19.82 10.53C22.37 15.49 27.9599 17.51 34.2199 15.57C40.4799 13.65 43.9499 8.75996 43.2099 3.19996L56.2299 4.30994L69.08 14.3099L62.4198 24.0699L58.09 21.1099H58.11ZM67.3898 27.4399L64.82 25.6899L71.3798 16.0799L73.7699 17.9399L67.3898 27.4399Z" fill="#B01657"/>
<path d="M43.7199 26.4099L32.4298 29.9498C31.6698 30.1898 31.2499 30.9899 31.4899 31.7499C31.7299 32.5099 32.5299 32.9298 33.2899 32.6898L42.6998 29.7399L39.3798 45.5399C39.2198 46.3199 39.7099 47.0799 40.4899 47.2399C40.7399 47.2899 40.9899 47.2798 41.2099 47.2098C41.6899 47.0598 42.0798 46.6599 42.1898 46.1299L45.8898 28.5199C46.0498 27.9299 45.8899 27.3099 45.4699 26.8599C45.0099 26.3799 44.3399 26.2099 43.7099 26.3999L43.7199 26.4099Z" fill="#B01657"/>
</svg>
