<svg width="112" height="102" viewBox="0 0 112 102" fill="none" xmlns="http://www.w3.org/2000/svg">
<path d="M59.3701 10.38L55.51 9.36998C54.6 9.12998 53.67 9.62001 53.34 10.52C53.03 11.38 52.13 11.86 51.26 11.63C50.38 11.4 49.8299 10.54 49.9799 9.62999C50.1399 8.68999 49.5699 7.80999 48.6599 7.56999L44.4499 6.46996C43.5299 6.22996 42.6 6.71997 42.28 7.60997C41.97 8.47997 41.0699 8.95996 40.1999 8.71996C39.3199 8.48996 38.7699 7.63997 38.9199 6.72997C39.0799 5.78997 38.51 4.90997 37.6 4.66997L33.3798 3.55998C32.4698 3.31998 31.5399 3.82001 31.2199 4.71001C30.9099 5.58001 30.0098 6.04999 29.1298 5.81999C28.2598 5.58999 27.7101 4.74001 27.8601 3.84001C28.0201 2.90001 27.45 2.01001 26.54 1.77001L22.6699 0.749987C21.6499 0.479987 20.59 1.09999 20.32 2.12999L0.090032 79.24C-0.179968 80.27 0.429905 81.33 1.45991 81.6L9.10004 83.6C10.1 83.86 11.1099 83.29 11.4199 82.29C12.8799 77.44 17.8299 74.63 22.6899 75.91C27.5399 77.18 30.4701 82.05 29.3701 87.01C29.1401 88.02 29.7499 89.02 30.7399 89.28L38.1599 91.23C39.1899 91.5 40.24 90.88 40.51 89.85L43.2199 79.53L44.09 76.1999C43.28 75.4999 42.3899 74.93 41.4499 74.49L40.6699 77.4499L37.8898 88.0699L32.4599 86.65C32.8899 83.58 32.17 80.59 30.58 78.16C29.03 75.77 26.6399 73.93 23.7099 73.1C23.6199 73.07 23.5299 73.04 23.4399 73.02C17.3599 71.42 11.1698 74.6599 8.88984 80.4599L3.23993 78.98L7.63984 62.24L11.9299 63.37L12.6899 60.48L8.38984 59.35L22.9399 3.90996L24.8601 4.40996C24.9701 6.42996 26.3498 8.18001 28.3798 8.71001C30.3998 9.24001 32.46 8.38999 33.55 6.68999L35.9199 7.30998C36.0299 9.32998 37.4099 11.08 39.4399 11.61C41.4599 12.14 43.5201 11.3 44.6101 9.59996L46.9799 10.22C47.0899 12.23 48.4699 13.98 50.4999 14.51C52.5299 15.05 54.5899 14.2 55.6799 12.5L57.59 13L48.3798 48.0799L47.08 53.04L51.03 49.75L52.34 44.79L60.7499 12.74C61.0199 11.71 60.4001 10.65 59.3701 10.38Z" fill="#B01657"/>
<path d="M32.04 65.55L29.22 67.9L27.05 67.33L27.55 65.41L27.8 64.4399L28.5 64.62L32.04 65.55Z" fill="#B01657"/>
<path d="M16.7512 61.4913L15.9924 64.3834L22.773 66.1623L23.5317 63.2701L16.7512 61.4913Z" fill="#B01657"/>
<path d="M34.8899 28.9399C26.7299 26.7999 18.36 31.7 16.22 39.85C14.08 48.01 18.9699 56.38 27.1299 58.52C30.3299 59.36 33.56 59.12 36.44 58.02H36.45C39.6 56.81 42.3201 54.59 44.1001 51.64C44.8401 50.42 45.4201 49.07 45.8001 47.62C47.9401 39.46 43.0499 31.0799 34.8899 28.9399ZM43.3001 44.38C43.2501 45.2 43.13 46.03 42.91 46.86C42.69 47.69 42.4001 48.47 42.0301 49.21H41.96L40.95 46.34L43.24 44.34L43.3001 44.38ZM41.7901 37.86C42.2701 38.74 42.65 39.68 42.91 40.66L38.8201 44.23L37.5301 43.89L35.8501 39.14L36.46 38.09L40.8001 37.99L41.7901 37.86ZM35.3999 32.26C37.0199 32.88 38.4402 33.82 39.6202 34.99V35.01L36.5601 35.08L35.3601 32.29L35.3999 32.26ZM28.49 32.83L28.8799 31.64C29.8199 31.48 30.78 31.41 31.76 31.47H31.75L33.92 36.52L33.3201 37.5601L28.1299 37.95L27.2901 36.87L28.49 32.83ZM34.6299 44.6899L31.3601 47.5501L27.5401 45L28.6001 40.9301L33.19 40.58L34.6299 44.6899ZM25.3301 32.85L25.3702 32.87L24.5 35.78L21.46 36.0501L21.44 36.02C22.51 34.7 23.8401 33.62 25.3301 32.85ZM19.1101 40.61C19.2301 40.14 19.3901 39.69 19.5601 39.24L24.96 38.75L25.8001 39.85L24.5601 44.5601L23.2901 45.11L18.8301 42.03C18.9001 41.56 18.9801 41.08 19.1101 40.61ZM20.7701 50.4301H20.72C19.8 49.0201 19.1699 47.44 18.8899 45.76L18.92 45.74L21.44 47.48L20.7701 50.4301ZM26.46 54.15L25.75 54.83C24.82 54.39 23.96 53.84 23.19 53.2L24.3999 47.89L25.66 47.35L29.99 50.25V51.45L26.46 54.15ZM34.22 55.59C32.62 56.02 30.91 56.14 29.2 55.88L29.18 55.84L31.6001 54L34.23 55.5601V55.59H34.22ZM32.97 51.33V50.12L36.75 46.8001L38.0501 47.14L39.5 51.24L39.91 52.2C39.22 52.93 38.4401 53.55 37.6001 54.08L32.97 51.33Z" fill="#B01657"/>
<path d="M44.698 16.7668L43.1831 22.5414L46.0752 23.3001L47.5902 17.5256L44.698 16.7668Z" fill="#B01657"/>
<path d="M42.7123 24.3484L41.814 27.7726L44.7061 28.5313L45.6044 25.1072L42.7123 24.3484Z" fill="#B01657"/>
<path d="M29.2102 12.6996L27.6953 18.4741L30.5874 19.2329L32.1024 13.4583L29.2102 12.6996Z" fill="#B01657"/>
<path d="M27.2147 20.2885L26.3164 23.7126L29.2085 24.4714L30.1068 21.0472L27.2147 20.2885Z" fill="#B01657"/>
<path d="M34.3697 14.0563L32.7126 20.3726L35.6048 21.1313L37.2618 14.815L34.3697 14.0563Z" fill="#B01657"/>
<path d="M32.247 22.1705L31.4883 25.0626L34.3803 25.8213L35.1391 22.9292L32.247 22.1705Z" fill="#B01657"/>
<path d="M38.1614 20.6473L36.6465 26.4219L39.5386 27.1806L41.0535 21.406L38.1614 20.6473Z" fill="#B01657"/>
<path d="M39.5306 15.4162L38.6323 18.8401L41.5244 19.5988L42.4227 16.1749L39.5306 15.4162Z" fill="#B01657"/>
<path d="M111.25 47.6399L108.69 44.5699C108.09 43.8499 107.05 43.7099 106.26 44.2499C105.51 44.7699 104.5 44.6299 103.92 43.9399C103.34 43.2399 103.39 42.2299 104.04 41.5699C104.71 40.8999 104.76 39.8499 104.17 39.1299L101.38 35.7799C100.77 35.0499 99.73 34.9199 98.95 35.4599C98.19 35.9799 97.1901 35.8399 96.6101 35.1499C96.0301 34.4499 96.08 33.4299 96.73 32.7799C97.4 32.1099 97.4501 31.0599 96.8501 30.3399L94.0601 26.9899C93.4601 26.2599 92.4099 26.12 91.6399 26.67C90.8799 27.19 89.8701 27.0499 89.2901 26.3499C88.7101 25.6599 88.7599 24.6399 89.4099 23.9999C90.0899 23.3299 90.1401 22.2699 89.5401 21.5499L86.98 18.4699C86.3 17.6599 85.09 17.5499 84.27 18.2299L52.3401 44.7899L48.3799 48.0799L47.0801 53.0399L51.0301 49.7499L85.3701 21.1999L86.6299 22.7199C85.5499 24.4199 85.66 26.6499 87 28.2599C88.34 29.8699 90.5099 30.3799 92.3799 29.6299L93.95 31.5099C92.87 33.2199 92.9701 35.44 94.3101 37.05C95.6501 38.67 97.82 39.17 99.69 38.42L101.26 40.3C100.18 42.01 100.28 44.2399 101.62 45.8499C102.96 47.4599 105.14 47.9699 107.01 47.2199L108.27 48.7399L64.21 85.3899L61.3701 81.9799L59.0801 83.8899L61.9099 87.3L48.6101 98.3699L45.02 94.05C49.31 89.54 49.6201 82.5599 45.6001 77.7199C45.1301 77.1599 44.6301 76.6499 44.0901 76.1999C43.2801 75.4999 42.39 74.9299 41.45 74.4899C37.68 72.6999 33.13 72.9199 29.43 75.3199L25.7 70.8299L29.22 67.8999L32.0401 65.55L28.5 64.6199L27.5501 65.4099L22.98 69.2099C22.16 69.8899 22.05 71.11 22.73 71.92L23.71 73.0999L27.7801 77.9899C28.4401 78.7899 29.5999 78.9099 30.4199 78.2799C30.4699 78.2399 30.5301 78.1999 30.5801 78.1599C33.6201 75.9099 37.5599 75.7299 40.6699 77.4499C41.6099 77.9699 42.48 78.6599 43.22 79.5299C43.25 79.5599 43.2801 79.5999 43.3101 79.6299C46.5101 83.4899 46.0701 89.16 42.2901 92.55C41.5201 93.24 41.4301 94.4099 42.0901 95.1999L46.99 101.09C47.67 101.91 48.88 102.02 49.7 101.34L111 50.3599C111.81 49.6799 111.93 48.4599 111.25 47.6399ZM44.1001 51.6399L36.45 58.0099C39.6 56.8099 42.3201 54.5899 44.1001 51.6399Z" fill="#B01657"/>
<path d="M39 59.76L32.04 65.55L28.5 64.62L36.4399 58.02H36.45C39.6 56.81 42.3201 54.59 44.1001 51.64L48.3799 48.08L47.0801 53.04L41.3 57.85" fill="#B01657"/>
<path d="M54.1768 73.4465L51.8779 75.3584L56.3603 80.7479L58.6592 78.836L54.1768 73.4465Z" fill="#B01657"/>
<path d="M47.0801 64.8101L46.1499 68.35L44.6001 66.49L46.8899 64.58L47.0801 64.8101Z" fill="#B01657"/>
<path d="M51.3701 69.97L49.0801 71.87L46.1499 68.35L47.0801 64.8101L51.3701 69.97Z" fill="#B01657"/>
<path d="M78.5601 70.0501C85.0401 64.6601 85.9301 55.0001 80.5401 48.5201C75.1501 42.0401 65.49 41.1501 59.01 46.5401C52.53 51.9301 51.6401 61.59 57.0301 68.07C62.4201 74.55 72.0801 75.4401 78.5601 70.0501ZM71.1101 70.37C70.1301 70.56 69.1299 70.6101 68.1399 70.5601L65.97 65.62L66.67 64.63L71.68 64.13L72.5401 65.1601L71.3301 69.34L71.1101 70.36V70.37ZM78.3999 65.96C77.8899 66.6 77.2999 67.21 76.6399 67.75C75.9799 68.29 75.2801 68.7601 74.5601 69.1501L74.5 69.11L75.3501 66.19L78.3799 65.8901L78.3999 65.95V65.96ZM80.25 62.71L74.8501 63.24L73.99 62.21L75.3899 57.37L76.49 56.87L80.0901 59.3101L80.97 59.7901C80.85 60.7901 80.61 61.77 80.25 62.71ZM79.0201 51.51C79.9801 52.96 80.5899 54.5501 80.8799 56.1801L80.8601 56.2L78.3301 54.48L78.98 51.51H79.0301H79.0201ZM65.48 46.45C67.12 46 68.82 45.9001 70.49 46.1401L70.51 46.1801L68.1202 48.0401L65.48 46.5V46.46V46.45ZM69.76 50.5401L73.0801 47.95L74.0901 47.22C74.9501 47.63 75.7701 48.14 76.5301 48.75L75.3601 54.11L74.2701 54.61L69.8101 51.9101L69.76 50.5401ZM59.8702 49.82C60.2002 49.47 60.54 49.14 60.92 48.83C61.3 48.52 61.6901 48.24 62.0901 47.98L66.76 50.72L66.8101 52.1L63.0601 55.22L61.71 54.9201L59.8702 49.82ZM65.23 57.3001L68.46 54.61L72.3899 56.99L71.18 61.1701L66.8501 61.6L65.23 57.3001ZM57.75 52.8901H57.7901L58.8301 55.7701L56.5701 57.7801L56.5301 57.75C56.6001 56.07 57.01 54.41 57.75 52.88V52.8901ZM56.93 61.45L61 57.83L62.3401 58.12L64.18 62.99L63.49 63.97L59.0401 64.11L58.0701 64.25C57.5701 63.35 57.2 62.41 56.94 61.44L56.93 61.45ZM60.2701 67.08L63.3101 66.98L64.5401 69.7801L64.5201 69.8001C62.9601 69.2201 61.51 68.33 60.26 67.12V67.07L60.2701 67.08Z" fill="#B01657"/>
<path d="M95.6813 44.6015L91.0913 48.4189L93.0032 50.7178L97.5932 46.9003L95.6813 44.6015Z" fill="#B01657"/>
<path d="M89.6446 49.6086L86.9229 51.8722L88.8348 54.171L91.5565 51.9074L89.6446 49.6086Z" fill="#B01657"/>
<path d="M85.4467 32.2849L80.8567 36.1023L82.7687 38.4012L87.3586 34.5838L85.4467 32.2849Z" fill="#B01657"/>
<path d="M79.4102 37.292L76.6885 39.5557L78.6004 41.8545L81.3221 39.5909L79.4102 37.292Z" fill="#B01657"/>
<path d="M88.8514 36.3967L83.8308 40.5723L85.7427 42.8711L90.7633 38.6955L88.8514 36.3967Z" fill="#B01657"/>
<path d="M82.3918 41.7554L80.093 43.6674L82.0049 45.9662L84.3038 44.0543L82.3918 41.7554Z" fill="#B01657"/>
<path d="M88.0978 43.9487L83.5078 47.7661L85.4197 50.0649L90.0097 46.2475L88.0978 43.9487Z" fill="#B01657"/>
<path d="M92.2662 40.4954L89.5444 42.759L91.4563 45.0579L94.1781 42.7942L92.2662 40.4954Z" fill="#B01657"/>
</svg>
