<svg width="118" height="110" viewBox="0 0 118 110" fill="none" xmlns="http://www.w3.org/2000/svg">
<path d="M113.17 51.23L78.8602 104.2C78.6702 104.49 78.44 104.72 78.17 104.91C77.76 105.19 77.2701 105.35 76.7501 105.39C76.2301 105.42 75.69 105.33 75.19 105.11C75.07 105.06 74.9502 105 74.8302 104.93L39.6002 82.29L45.8302 83.35L47.44 83.62C48.5 83.8 49.5501 83.75 50.4901 83.49C50.7901 83.41 51.0902 83.3099 51.3702 83.1899C52.6902 82.6399 53.77 81.68 54.41 80.43L54.44 80.37C54.48 80.3 54.5101 80.23 54.5401 80.15C54.7701 79.63 54.9401 79.06 55.0001 78.46L58.41 47.6L72.16 26.37C72.35 26.08 72.5802 25.85 72.8502 25.66C73.2602 25.38 73.7501 25.22 74.2701 25.18C74.7901 25.14 75.3302 25.24 75.8302 25.46C75.9502 25.51 76.07 25.58 76.19 25.65L112.05 47.4C112.38 47.6 112.64 47.84 112.87 48.1C113.2 48.5 113.42 48.98 113.5 49.47C113.58 49.96 113.53 50.45 113.33 50.9C113.28 51.01 113.22 51.12 113.15 51.23H113.17ZM116.64 47.02C116.05 45.99 115.17 45.06 114.04 44.37L78.18 22.62C77.9 22.45 77.6201 22.3 77.3201 22.17C76.5301 21.82 75.71 21.61 74.9 21.53C73.67 21.41 72.47 21.5999 71.41 22.0699C70.34 22.5299 69.4101 23.28 68.7601 24.28L59.42 38.71L62.0101 15.28C62.0901 14.56 62.0302 13.85 61.8602 13.16C61.6002 12.13 61.0802 11.17 60.3702 10.34C59.6602 9.51996 58.75 8.82999 57.7 8.36999C57.12 8.10999 56.4902 7.91004 55.8302 7.80004L32.4 3.82995C31.32 3.64995 30.3501 4.31004 30.2401 5.30004C30.1301 6.30004 30.9201 7.24993 32.0001 7.43993L55.43 11.41C55.71 11.46 55.97 11.54 56.22 11.65C56.81 11.91 57.31 12.35 57.64 12.87C57.81 13.13 57.9301 13.41 58.0001 13.71C58.0701 14 58.1001 14.3 58.0601 14.61L54.5301 46.49V46.5V46.52L51.0701 77.76C51.0401 78.02 50.9702 78.26 50.8702 78.48C50.8502 78.52 50.8301 78.56 50.8101 78.6C50.5501 79.13 50.0701 79.55 49.5001 79.78H49.4901C49.3701 79.84 49.25 79.88 49.13 79.91C48.72 80.02 48.2902 80.04 47.8302 79.97L46.22 79.6999L35.7701 77.93L6.72005 73.01C6.44005 72.96 6.17 72.88 5.92 72.77C5.33 72.51 4.83008 72.07 4.50008 71.54C4.34008 71.28 4.21997 70.9999 4.13997 70.6999C4.06997 70.4099 4.04015 70.11 4.08015 69.8L11.0701 6.64001C11.1001 6.38001 11.1701 6.14003 11.2701 5.91003C11.5101 5.38003 11.93 4.95005 12.47 4.68005C12.74 4.55005 13.0302 4.46003 13.3402 4.41003C13.6502 4.36003 13.9701 4.37004 14.3101 4.42004L18.39 5.10998C19.48 5.28998 20.4401 4.63001 20.5501 3.64001C20.6601 2.64001 19.8701 1.68999 18.7901 1.49999L14.71 0.810052C13.93 0.680052 13.17 0.670013 12.44 0.770013C11.35 0.930013 10.3501 1.33005 9.53011 1.93005C8.70011 2.53005 8.04019 3.32 7.62019 4.26C7.38019 4.79 7.21999 5.35995 7.15999 5.95995L0.169999 69.12C0.0899987 69.84 0.150145 70.55 0.320145 71.24C0.580145 72.27 1.09013 73.23 1.80013 74.05C2.51013 74.87 3.42004 75.56 4.46004 76.03C5.04004 76.29 5.67015 76.48 6.33015 76.6L31.15 80.8C31.31 81.09 31.5502 81.34 31.8502 81.54L72.8201 107.87L72.8602 107.9C73.1402 108.07 73.42 108.22 73.72 108.35C74.51 108.7 75.33 108.91 76.14 108.99C77.37 109.1 78.57 108.92 79.64 108.45C80.71 107.98 81.6301 107.23 82.2801 106.23L116.59 53.26C116.75 53.02 116.89 52.76 117.01 52.5C117.33 51.79 117.49 51.04 117.5 50.29C117.52 49.16 117.22 48.02 116.63 46.98L116.64 47.02Z" fill="#119F52"/>
<path d="M49.3301 36.48C46.8901 26.64 36.9301 20.64 27.0801 23.08C25.6401 23.44 24.25 23.97 22.93 24.66C19.29 26.56 16.39 29.65 14.73 33.41C14.63 33.63 14.55 33.83 14.47 34.03C10.67 43.44 15.2101 54.14 24.6201 57.95C33.5401 61.55 43.72 57.6701 47.98 49.0501C48.07 48.8601 48.17 48.66 48.27 48.44C49.96 44.69 50.3401 40.48 49.3301 36.5V36.48ZM48.3899 36.47C48.3899 36.47 48.3701 36.49 48.3601 36.5L43.5901 41.77L38.4199 41.23L34.73 34.8101L36.8701 30.03L43.8501 28.5601C46.0301 30.7501 47.5999 33.48 48.3799 36.47H48.3899ZM32.49 23.47L36.0401 29.66L33.8999 34.44L26.6599 35.96L22.8101 32.46L23.5701 25.35C26.3201 23.94 29.4 23.29 32.49 23.46V23.47ZM15.23 34.58C15.23 34.58 15.26 34.58 15.27 34.58L22.18 33.13L26.0801 36.6801L25.3001 43.99L20.77 46.58L14.2801 43.6701H14.26C13.77 40.6001 14.11 37.48 15.24 34.6L15.23 34.58ZM20.45 54.44C20.45 54.44 20.45 54.42 20.45 54.41L21.21 47.36L25.7801 44.75L32.45 47.74L33.5501 52.88L28.77 58.16C25.72 57.67 22.85 56.39 20.45 54.44ZM40.95 55.6C40.95 55.6 40.9199 55.59 40.9099 55.58L34.44 52.6801L33.3501 47.58L38.2801 42.13L43.5301 42.6801L47.02 48.75C47.02 48.75 47.0601 48.8 47.0801 48.83C45.6801 51.59 43.57 53.93 40.96 55.6H40.95Z" fill="#119F52"/>
<path d="M94.2801 58.77C91.8401 48.93 81.8801 42.93 72.0301 45.37C70.5901 45.73 69.1999 46.26 67.8799 46.95C64.2399 48.85 61.34 51.94 59.68 55.7C59.58 55.92 59.4999 56.12 59.4199 56.32C55.6199 65.73 60.1601 76.43 69.5701 80.24C78.4901 83.84 88.67 79.96 92.93 71.34C93.02 71.15 93.12 70.95 93.22 70.73C94.91 66.98 95.2901 62.7701 94.2801 58.7901V58.77ZM93.3401 58.76C93.3401 58.76 93.3201 58.7801 93.3101 58.7901L88.5401 64.0601L83.3701 63.52L79.68 57.1L81.8201 52.32L88.8001 50.85C90.9801 53.04 92.5501 55.77 93.3301 58.76H93.3401ZM77.44 45.76L80.99 51.95L78.8501 56.73L71.6101 58.25L67.76 54.75L68.52 47.64C71.27 46.23 74.35 45.58 77.44 45.75V45.76ZM60.18 56.87C60.18 56.87 60.21 56.87 60.22 56.87L67.1299 55.4201L71.0301 58.97L70.25 66.28L65.72 68.87L59.23 65.96H59.21C58.72 62.89 59.06 59.77 60.19 56.89L60.18 56.87ZM65.3999 76.73C65.3999 76.73 65.3999 76.71 65.3999 76.7L66.1599 69.65L70.73 67.0401L77.3999 70.03L78.5 75.1701L73.72 80.45C70.67 79.96 67.7999 78.68 65.3999 76.73ZM85.8999 77.89C85.8999 77.89 85.8701 77.88 85.8601 77.87L79.3899 74.97L78.3001 69.87L83.23 64.4201L88.48 64.97L91.97 71.0401C91.97 71.0401 92.0101 71.09 92.0301 71.12C90.6301 73.88 88.5199 76.22 85.9099 77.89H85.8999Z" fill="#119F52"/>
</svg>
