<svg width="100" height="98" viewBox="0 0 100 98" fill="none" xmlns="http://www.w3.org/2000/svg">
<path d="M41.3001 51.8C39.2201 52.08 37.2601 53.09 36.2701 55.01C35.7701 55.99 35.3402 57.01 34.8702 58C34.4302 58.94 35.8301 59.7599 36.2701 58.8199C36.7001 57.8999 37.1201 56.97 37.5701 56.05C38.3801 54.35 39.91 53.62 41.73 53.37C42.76 53.23 42.3201 51.6701 41.3001 51.8101V51.8Z" fill="#119F52"/>
<path d="M33.1299 60.3199C34.0199 58.4199 34.8201 56.4499 35.8101 54.6099C37.6001 51.2699 41.4 51.19 44.7 50.8C46.19 50.63 47.2001 50.1399 47.8101 48.6999C48.3501 47.4099 49.1501 46.1399 48.5701 44.7299C48.1101 43.5999 47.0301 42.5599 46.2901 41.6099C45.1201 40.1099 44.0801 38.5 44.0101 36.53C43.9501 34.99 44.6099 33.5999 45.1399 32.1999C45.5999 30.9899 46.0501 29.7899 46.5101 28.5799C47.0601 27.1099 44.71 26.48 44.16 27.93C43.41 29.9 42.55 31.8699 41.92 33.8799C40.67 37.9099 42.9201 41.1999 45.2701 44.2199C45.5601 44.5899 46.1201 45.07 46.2801 45.52C46.4401 45.96 46.15 46.3999 45.97 46.8199C45.78 47.2599 45.6 48.06 45.21 48.28C44.86 48.47 44.2101 48.4199 43.8201 48.4599C40.3701 48.8499 36.8801 49.2299 34.5301 52.1299C32.9401 54.0999 32.0801 56.8099 31.0101 59.0799C30.3501 60.4899 32.4501 61.73 33.1101 60.31L33.1299 60.3199Z" fill="#119F52"/>
<path d="M59.4399 46C61.5199 45.72 63.48 44.7101 64.47 42.7901C64.96 41.8301 65.3901 40.83 65.8401 39.85C66.2801 38.91 64.8799 38.0901 64.4399 39.0301C64.0199 39.9401 63.5999 40.85 63.1699 41.76C62.3599 43.46 60.83 44.19 59.01 44.44C57.98 44.58 58.4199 46.14 59.4399 46Z" fill="#119F52"/>
<path d="M56.5701 69.87C57.3201 67.9 58.1801 65.9301 58.8101 63.9201C60.0601 59.8901 57.81 56.6 55.46 53.58C55.17 53.21 54.61 52.73 54.45 52.28C54.29 51.84 54.58 51.4 54.76 50.98C54.95 50.54 55.13 49.74 55.52 49.52C55.87 49.33 56.5199 49.38 56.9099 49.34C60.3599 48.95 63.85 48.5701 66.2 45.6701C67.79 43.7001 68.65 40.99 69.72 38.72C70.38 37.31 68.2801 36.07 67.6201 37.49C66.7301 39.39 65.93 41.36 64.94 43.2C63.15 46.54 59.3501 46.62 56.0501 47.01C54.5601 47.18 53.55 47.67 52.94 49.11C52.4 50.4 51.5999 51.67 52.1799 53.08C52.6399 54.21 53.72 55.25 54.46 56.2C55.63 57.7 56.67 59.31 56.74 61.28C56.8 62.82 56.1401 64.21 55.6101 65.61C55.1501 66.82 54.7 68.02 54.24 69.23C53.69 70.7 56.0401 71.33 56.5901 69.88L56.5701 69.87Z" fill="#119F52"/>
<path d="M70.9599 38.37C72.8699 38.89 74.76 37.0701 73.82 35.1501C73.45 34.4001 72.76 34.0901 72.04 33.7901C70.24 33.0301 68.4298 32.27 66.6298 31.51C60.9798 29.13 55.3299 26.75 49.6799 24.36C48.2699 23.77 46.8599 23.0501 45.4199 22.5601C44.0799 22.1101 42.59 22.83 42.3 24.27C42.04 25.58 42.8799 26.51 43.9899 27C48.3499 28.91 52.7699 30.7001 57.1499 32.5501C61.7599 34.4901 66.3599 36.43 70.9699 38.37" fill="#119F52"/>
<path d="M55.3999 75.27C57.3099 75.79 59.2 73.9701 58.26 72.0501C57.89 71.3001 57.1999 70.99 56.4799 70.69C54.6799 69.93 52.87 69.17 51.07 68.41C45.42 66.03 39.7701 63.65 34.1201 61.26C32.7101 60.67 31.3001 59.95 29.8601 59.46C28.5201 59.01 27.0299 59.7301 26.7399 61.1701C26.4799 62.4801 27.3199 63.41 28.4299 63.9C32.7899 65.81 37.21 67.6 41.59 69.45C46.2 71.39 50.7999 73.33 55.4099 75.27" fill="#119F52"/>
<path d="M53.03 71.67C53.85 72.01 54.66 72.36 55.48 72.7Z" fill="#119F52"/>
<path d="M48.5501 9.09999C32.0501 9.65999 17.34 20.43 11.99 36.09C10.47 40.53 9.79996 45.25 9.90996 49.94C9.92996 50.97 10.7802 51.92 11.8602 51.89C15.1902 51.79 18.5201 51.7 21.8501 51.6C21.3901 50.49 20.93 49.38 20.47 48.28C15.89 53.13 11.31 57.97 6.73003 62.82C6.06003 63.53 5.39002 64.24 4.72002 64.95C5.80002 65.24 6.89002 65.5201 7.97002 65.8101C1.80002 50.2201 4.57994 32.1301 15.6399 19.4301C25.9699 7.58007 42.1099 1.74998 57.6299 4.58998C67.3799 6.37998 76.21 11.33 82.92 18.61C84.62 20.46 87.37 17.7 85.67 15.86C73.01 2.12 53.13 -3.36994 35.24 2.17006C19.69 6.98006 7.27002 19.59 2.72002 35.22C-0.289979 45.56 0.260021 56.84 4.22002 66.85C4.73002 68.14 6.38002 68.87 7.47002 67.71C12.05 62.86 16.63 58.0201 21.21 53.1701C21.88 52.4601 22.55 51.7501 23.22 51.0401C24.34 49.8601 23.5801 47.67 21.8401 47.72C18.5101 47.82 15.1801 47.91 11.8501 48.01C12.5001 48.66 13.1501 49.31 13.8001 49.96C13.4401 35.17 22.34 21.1 36.2 15.6C40.15 14.03 44.3101 13.17 48.5501 13.02C51.0501 12.94 51.0601 9.04002 48.5501 9.13002V9.09999Z" fill="#119F52"/>
<path d="M52.19 88.7C68.69 88.14 83.4 77.37 88.75 61.71C90.27 57.27 90.9401 52.55 90.8301 47.86C90.8101 46.83 89.9599 45.88 88.8799 45.91C85.5499 46.01 82.2199 46.1 78.8899 46.2C79.3499 47.31 79.81 48.42 80.27 49.52C84.85 44.67 89.43 39.83 94.01 34.98C94.68 34.27 95.35 33.56 96.02 32.85C94.94 32.56 93.85 32.28 92.77 31.99C98.94 47.58 96.1601 65.67 85.1001 78.37C74.7701 90.22 58.6301 96.05 43.1101 93.21C33.3601 91.42 24.5301 86.4699 17.8201 79.1899C16.1201 77.3399 13.3701 80.0999 15.0701 81.9399C27.7301 95.6799 47.61 101.16 65.5 95.63C81.05 90.82 93.47 78.21 98.02 62.58C101.03 52.24 100.48 40.96 96.52 30.95C96.01 29.66 94.36 28.93 93.27 30.09C88.69 34.94 84.11 39.78 79.53 44.63C78.86 45.34 78.19 46.05 77.52 46.76C76.4 47.94 77.1599 50.13 78.8999 50.08C82.2299 49.98 85.5599 49.89 88.8899 49.79C88.2399 49.14 87.59 48.49 86.94 47.84C87.3 62.63 78.4001 76.7 64.5401 82.2C60.5901 83.77 56.43 84.63 52.19 84.78C49.69 84.86 49.68 88.7601 52.19 88.6701V88.7Z" fill="#119F52"/>
</svg>
