<svg width="17" height="17" viewBox="0 0 17 17" fill="none" xmlns="http://www.w3.org/2000/svg">
<path d="M8.27002 10.51L13.96 16.1999C14.48 16.7199 15.3201 16.7199 15.8401 16.1999C16.3601 15.6799 16.3601 14.8399 15.8401 14.3199L10.1499 8.62999L15.8401 2.93993C16.3601 2.41993 16.3601 1.58004 15.8401 1.06004C15.3201 0.540044 14.48 0.540044 13.96 1.06004L8.27002 6.74999L2.58008 1.06004C2.06008 0.540044 1.21995 0.540044 0.699951 1.06004C0.439951 1.32004 0.310059 1.65999 0.310059 1.99999C0.310059 2.33999 0.439951 2.67993 0.699951 2.93993L6.38989 8.62999L0.699951 14.3199C0.439951 14.5799 0.310059 14.92 0.310059 15.26C0.310059 15.6 0.439951 15.9399 0.699951 16.1999C1.21995 16.7199 2.06008 16.7199 2.58008 16.1999L8.27002 10.51Z" fill="#E0E0E0"/>
</svg>
