<svg width="66" height="94" viewBox="0 0 66 94" fill="none" xmlns="http://www.w3.org/2000/svg">
<g opacity="0.61">
<path d="M35.3202 33.93C35.0602 34.24 34.7801 34.5399 34.4901 34.8299C32.5401 36.7799 30.19 38.0799 27.71 38.7299L27.66 25.9799C27.66 24.8699 27.2 23.8399 26.46 23.0999C25.78 22.4199 24.8502 21.9899 23.8202 21.9699H23.7501C21.6001 21.9699 19.8702 23.73 19.8702 25.88L19.92 38.7099C18.55 38.3499 17.2201 37.79 15.9901 37.02C14.9901 36.42 14.04 35.68 13.18 34.81C7.30002 28.93 7.30002 19.38 13.18 13.5C19.06 7.61997 28.6101 7.61997 34.4901 13.5C40.0801 19.09 40.3602 27.99 35.3202 33.91V33.93Z" fill="#119F52"/>
</g>
<path d="M40.56 7.45992C31.34 -1.76008 16.3401 -1.76008 7.12008 7.45992C-2.09992 16.6799 -2.09992 31.68 7.12008 40.9C9.71008 43.49 12.78 45.36 16.03 46.5C17.32 46.94 18.6299 47.28 19.9599 47.5L19.9399 43.25C18.5999 42.98 17.28 42.57 16.01 42.01C13.85 41.07 11.83 39.7099 10.07 37.9499C2.48003 30.3599 2.48003 18 10.07 10.41C17.66 2.81999 30.0201 2.81999 37.6101 10.41C44.4301 17.23 45.1199 27.9 39.6799 35.51C39.0699 36.37 38.3801 37.1799 37.6101 37.9499C37.4301 38.1299 37.25 38.2999 37.07 38.4699C37.3 38.6199 37.5099 38.7899 37.6999 38.9799C38.4399 39.7199 38.8899 40.7499 38.8999 41.8599V42.41C39.4699 41.94 40.03 41.44 40.56 40.9C41.64 39.82 42.5999 38.66 43.4299 37.43C49.6499 28.23 48.7 15.5899 40.56 7.44991V7.45992ZM27.7299 43.25L27.75 47.49C28.9 47.3 30.0198 47.02 31.1298 46.67L31.1101 42.24C30.0101 42.68 28.8799 43.02 27.7299 43.25Z" fill="#119F52"/>
<path d="M35.32 33.9301C35.06 34.2401 34.7799 34.54 34.4899 34.83C32.5399 36.78 30.1899 38.08 27.7099 38.73L27.7299 43.24L27.7499 47.48L27.79 56.49C27.79 56.96 27.98 57.3799 28.29 57.6899C28.59 57.9799 28.9899 58.1701 29.4299 58.1801H29.4899C30.4199 58.1801 31.1799 57.35 31.1799 56.4L31.1398 46.66L31.12 42.23V41.75C31.12 39.6 32.8499 37.85 34.9999 37.84C35.0299 37.84 35.05 37.84 35.07 37.84C35.81 37.84 36.5 38.07 37.07 38.46C37.25 38.29 37.44 38.1199 37.61 37.9399C38.38 37.1699 39.0699 36.35 39.6799 35.5C38.4199 34.54 36.91 33.9901 35.32 33.9301ZM65.2699 66.4L65.2499 62.4399L65.1999 49.0699C65.1999 46.9899 64.3798 45.0399 62.9098 43.5699C61.4298 42.0899 59.4698 41.28 57.3898 41.28C57.3098 41.28 57.2399 41.28 57.1999 41.28C55.9199 41.31 54.69 41.65 53.61 42.26C53.23 41.13 52.5899 40.08 51.7199 39.22C50.2299 37.73 48.2598 36.9201 46.1598 36.9301H46.0099C45.1099 36.9501 44.2399 37.1199 43.4299 37.4399C42.9099 37.6399 42.4099 37.9 41.9399 38.21C41.5599 37.47 41.0699 36.8 40.4899 36.21C40.2399 35.96 39.9699 35.73 39.6899 35.51C38.4299 34.55 36.92 33.9999 35.33 33.9399C35.27 33.9399 35.2098 33.9399 35.1498 33.9399H34.9799C33.7799 33.9399 32.6498 34.22 31.6298 34.71L31.59 25.99C31.59 23.89 30.7199 21.84 29.2399 20.35C27.7999 18.91 25.8998 18.0999 23.8798 18.0699H23.7099C19.4099 18.0999 15.9199 21.62 15.9399 25.92L15.9899 37.05L16.0099 42.02L16.0299 46.51L16.05 50.27C14.64 49.07 12.8099 48.39 10.9499 48.4C10.1499 48.4 9.35 48.53 8.58 48.78H8.56999C4.46999 50.11 2.21997 54.54 3.54997 58.64L6.49992 67.72V67.74L6.51994 67.76L9.31999 76.0601C10.58 79.7701 12.6899 83.19 15.4599 85.95C20.0099 90.5 26 93.09 32.33 93.25H32.34C32.6 93.25 32.87 93.25 33.12 93.25H33.1298L38.6799 93.23C40.1999 93.23 41.7098 93.09 43.1598 92.83C46.3898 92.28 49.4499 91.1299 52.2799 89.4399C59.8699 84.8899 64.4499 77.83 65.1799 69.55C65.2799 68.72 65.29 67.4401 65.29 67.4301V66.4H65.2699ZM61.2599 69.13C60.6299 76.62 56.3799 82.41 50.2499 86.08C47.8999 87.49 45.2799 88.48 42.4699 88.97C41.2299 89.19 39.9498 89.3 38.6498 89.3L33.1 89.33C32.87 89.33 32.6398 89.33 32.4098 89.33C26.9498 89.19 21.9299 86.89 18.2199 83.17C15.9099 80.87 14.1199 78.0201 13.0299 74.8101L10.2299 66.51L7.27995 57.4301C6.60995 55.3901 7.72995 53.19 9.77995 52.52C10.1799 52.4 10.5799 52.33 10.9699 52.33C12.0099 52.33 13.0099 52.74 13.7399 53.47C14.1599 53.89 14.4899 54.41 14.6899 55.02L17.1698 62.65L17.31 63.08C17.39 63.32 17.5098 63.51 17.6598 63.66C17.9198 63.93 18.2798 64.05 18.6298 64.05C19.3398 64.05 20.04 63.54 20.04 62.65L19.9799 47.52L19.9599 43.27L19.9399 38.75L19.8898 25.92C19.8898 23.77 21.6199 22.02 23.7699 22.01H23.84C24.87 22.02 25.7999 22.45 26.4799 23.14C27.2199 23.88 27.6699 24.91 27.6799 26.02L27.7299 38.77L27.7499 43.28L27.7699 47.52L27.81 56.53C27.81 57 28 57.42 28.31 57.73C28.61 58.02 29.0099 58.21 29.4499 58.22H29.5099C30.4399 58.22 31.1999 57.3899 31.1999 56.4399L31.1598 46.7L31.1398 42.27V41.79C31.1398 39.64 32.8699 37.89 35.0199 37.88C35.0499 37.88 35.07 37.88 35.09 37.88C35.83 37.88 36.52 38.11 37.09 38.5C37.32 38.65 37.5299 38.82 37.7199 39.01C38.4599 39.75 38.9098 40.78 38.9198 41.89V42.4399L38.9899 58.52C38.9899 58.99 39.1799 59.41 39.4899 59.72C39.7899 60.01 40.1898 60.2 40.6298 60.21H40.6899C41.6299 60.21 42.3898 59.3701 42.3798 58.4301L42.32 44.9301C42.32 42.7901 43.9798 40.94 46.1298 40.89H46.1999C47.2799 40.89 48.2599 41.32 48.9699 42.03C49.6699 42.73 50.11 43.7 50.11 44.77L50.1799 60.85C50.1799 61.32 50.3699 61.74 50.6799 62.04C50.9899 62.35 51.4198 62.54 51.8798 62.54C52.8198 62.54 53.57 61.77 53.57 60.84L53.5199 49.29C53.5199 47.15 55.18 45.3 57.33 45.25H57.3998C58.4798 45.25 59.4698 45.68 60.1698 46.39C60.8698 47.09 61.31 48.06 61.31 49.13L61.37 62.51V66.47L61.3898 67.5C61.3898 67.84 61.36 68.8601 61.3 69.1801L61.2599 69.13ZM31.1298 46.67L31.11 42.24C30.01 42.68 28.8799 43.02 27.7299 43.25L27.7499 47.49L27.79 56.5C27.79 56.97 27.98 57.39 28.29 57.7C28.59 57.99 28.9899 58.1799 29.4299 58.1899H29.4899C30.4199 58.1899 31.1799 57.36 31.1799 56.41L31.1398 46.67H31.1298ZM31.1298 46.67L31.11 42.24C30.01 42.68 28.8799 43.02 27.7299 43.25L27.7499 47.49L27.79 56.5C27.79 56.97 27.98 57.39 28.29 57.7C28.59 57.99 28.9899 58.1799 29.4299 58.1899H29.4899C30.4199 58.1899 31.1799 57.36 31.1799 56.41L31.1398 46.67H31.1298Z" fill="#119F52"/>
</svg>
